<svg xmlns="http://www.w3.org/2000/svg" version="1.1" xmlns:xlink="http://www.w3.org/1999/xlink" xmlns:svgjs="http://svgjs.dev/svgjs" width="1440" height="560" preserveAspectRatio="none" viewBox="0 0 1440 560"><g mask="url(&quot;#SvgjsMask1001&quot;)" fill="none"><path d="M140 95.79C122.13 95.79 111.69 118.28 111.69 140C111.69 160.07 122.52 179.38 140 179.38C164.67 179.38 196 160.47 196 140C196 118.67 164.29 95.79 140 95.79" stroke="rgba(51, 121, 194, 0.58)" stroke-width="2"></path><path d="M980 134.29C977.62 137.46 974.51 136.19 974.51 140C974.51 167.05 959.98 194.96 980 196C1032.72 198.74 1050.99 173.52 1120 147.57C1125.44 145.52 1124.38 143.7 1128.89 140C1194.38 86.28 1188.42 75.17 1260 32.73C1306.47 5.17 1311.9 12.41 1365 0C1381.9 -3.95 1382.5 0 1400 0C1470 0 1505 -35 1540 0C1575 35 1540 70 1540 140C1540 210 1540 210 1540 280C1540 350 1540 350 1540 420C1540 490 1575 525 1540 560C1505 595 1470 560 1400 560C1336.57 560 1334.62 565.13 1273.13 560C1264.62 559.29 1267 548.33 1260 548.33C1251.5 548.33 1252.54 559.13 1242.13 560C1182.54 564.97 1181.07 560 1120 560C1054.78 560 1047.2 570.81 989.55 560C977.2 557.69 983.86 533.75 980 533.75C976.29 533.75 986.05 557.82 974.4 560C916.05 570.94 907.2 560 840 560C770 560 770 560 700 560C643.13 560 608.19 591.27 586.25 560C559.08 521.27 601.06 490.07 601.79 420C602.52 350.07 603.12 347.97 589.17 280C582.22 246.15 588.02 223.74 560 216.36C503.44 201.46 482.16 212.61 420 235.45C395.55 244.43 386.78 257.16 386.78 280C386.78 305.22 401.13 307.48 420 331.58C455.92 377.48 473 368.58 496.36 420C524.89 482.79 545.89 519.48 523.79 560C507.71 589.48 471.89 560 420 560C350 560 350 560 280 560C217.78 560 216.28 564.74 155.56 560C146.28 559.27 149.07 551.68 140 549.06C71.29 529.24 42.16 553.99 0 515.13C-27.84 489.46 0 467.57 0 420C0 368.47 -13.33 362.55 0 316.94C7.13 292.55 40.92 297.36 40.92 280C40.92 264.11 6.42 272.4 0 250.44C-14.04 202.4 0 195.22 0 140C0 70 -35 35 0 0C35 -35 70 0 140 0C210 0 210 0 280 0C350 0 350 0 420 0C490 0 490 0 560 0C630 0 630 0 700 0C770 0 770 0 840 0C910 0 910 0 980 0C1029.85 0 1079.7 -25.08 1079.7 0C1079.7 42.07 1030.22 67.46 980 134.29" stroke="rgba(51, 121, 194, 0.58)" stroke-width="2"></path><path d="M1400 105C1397.82 105 1395.41 123.08 1395.41 140C1395.41 143.76 1397.79 146.36 1400 146.36C1402.14 146.36 1404.12 143.66 1404.12 140C1404.12 122.98 1402.18 105 1400 105" stroke="rgba(51, 121, 194, 0.58)" stroke-width="2"></path><path d="M1400 370.46C1378.95 370.46 1363.82 396.2 1363.82 420C1363.82 440.85 1379.55 459.75 1400 459.75C1426.92 459.75 1458.55 441.43 1458.55 420C1458.55 396.78 1426.32 370.46 1400 370.46" stroke="rgba(51, 121, 194, 0.58)" stroke-width="2"></path><path d="M140 34.39C100.11 81.23 111 91.1 72.36 140C41 179.68 21.24 211.56 0 211.56C-14.94 211.56 0 175.78 0 140C0 70 -35 35 0 0C35 -35 70 0 140 0C165.79 0 191.58 -7.81 191.58 0C191.58 9.39 159.72 11.23 140 34.39" stroke="rgba(51, 121, 194, 0.58)" stroke-width="2"></path><path d="M273.78 140C278.73 136.3 274.33 131.49 280 129.23C347.44 102.33 356.35 78.21 420 81.67C455.51 83.6 478.33 118.58 478.33 140C478.33 155.7 441.19 136.25 420 155.91C365.75 206.25 329.9 215.58 327.46 280C324.9 347.63 367.02 351.55 410 420C413.29 425.23 417.82 421.65 420 427.37C444.54 491.65 463.45 509.43 463.45 560C463.45 575.74 441.73 560 420 560C350 560 350 560 280 560C256.66 560 253.65 569.53 233.33 560C183.65 536.72 191.96 514.37 140 494.38C75.3 469.5 51.71 497.73 0 470.26C-18.29 460.54 0 445.13 0 420C0 392.78 -14.16 386.48 0 365.56C33.22 316.48 48.26 323.69 94.77 280C118.26 257.94 114.69 253.85 140 234.06C204.2 183.85 208.73 188.71 273.78 140" stroke="rgba(51, 121, 194, 0.58)" stroke-width="2"></path><path d="M578.85 140C568.16 72.67 558.87 39.82 593.33 0C619.45 -30.18 646.66 0 700 0C770 0 770 0 840 0C910 0 910 0 980 0C1003.34 0 1026.67 -11.74 1026.67 0C1026.67 19.69 1005.52 33.28 980 62.86C945.13 103.28 927.2 93.4 905.88 140C877.53 201.97 871.61 212.65 880.65 280C890.41 352.65 931.21 347.01 943.48 420C954.75 487.01 959.61 516.86 927.73 560C907.87 586.86 883.87 560 840 560C770 560 770 560 700 560C665 560 637.59 583.11 630 560C614.6 513.11 652.08 490.27 654.03 420C655.97 350.27 655.87 347.38 637.78 280C618.28 207.38 590.39 212.67 578.85 140" stroke="rgba(51, 121, 194, 0.58)" stroke-width="2"></path><path d="M1184.44 140C1221.94 108.75 1221.98 78.18 1260 78.18C1298.77 78.18 1304.12 104.21 1338.03 140C1374.12 178.08 1370.1 225.91 1400 225.91C1428.88 225.91 1427.53 182.78 1455.59 140C1497.53 76.05 1516.99 12.44 1540 12.44C1559.19 12.44 1540 76.22 1540 140C1540 201.06 1553.7 209.61 1540 262.13C1535.44 279.61 1522.4 272.64 1503.48 280C1452.4 299.88 1441.31 284.31 1400 316.62C1351.82 354.31 1363.36 369.17 1324.49 420C1293.36 460.72 1297.78 465.99 1260 499.72C1219.37 535.99 1216.54 538.96 1167.66 560C1146.54 569.1 1143.83 560 1120 560C1094.55 560 1082.72 577.62 1069.09 560C1028.57 507.62 1022.87 492.54 1011.7 420C1001.31 352.54 997.49 339.2 1025.97 280C1051.64 226.63 1072.47 236.85 1120 194.86C1151.71 166.85 1151.94 167.09 1184.44 140" stroke="rgba(51, 121, 194, 0.58)" stroke-width="2"></path><path d="M1522.18 420C1522.18 383.38 1535.48 344.62 1540 344.62C1544.39 344.62 1540 382.31 1540 420C1540 437.5 1544.2 455 1540 455C1535.29 455 1522.18 438.57 1522.18 420" stroke="rgba(51, 121, 194, 0.58)" stroke-width="2"></path><path d="M1327.81 560C1327.81 544.02 1362.75 502.96 1400 502.96C1441.63 502.96 1485.56 544.43 1485.56 560C1485.56 572.95 1442.78 560 1400 560C1363.9 560 1327.81 572.54 1327.81 560" stroke="rgba(51, 121, 194, 0.58)" stroke-width="2"></path><path d="M0 60.54C8.59 60.54 33.03 103.59 33.03 140C33.03 159.66 9.7 172.67 0 172.67C-6.82 172.67 0 156.33 0 140C0 100.27 -7.93 60.54 0 60.54" stroke="rgba(51, 121, 194, 0.58)" stroke-width="2"></path><path d="M646.15 140C636.96 71.38 629.16 51.28 648.89 0C656.09 -18.72 674.44 0 700 0C770 0 770 0 840 0C868 0 896 -15.85 896 0C896 30.81 861.86 44.49 840 93.33C830.53 114.49 844.06 119.44 833.33 140C795.36 212.77 783.25 207.46 742.61 280C716.58 326.46 714.6 378 700 378C686.49 378 697.28 328.13 686.39 280C670.36 209.13 655.71 211.38 646.15 140" stroke="rgba(51, 121, 194, 0.58)" stroke-width="2"></path><path d="M1240 140C1240 128.69 1249.94 123.64 1260 123.64C1270.27 123.64 1280.66 128.54 1280.66 140C1280.66 171.72 1270.18 210 1260 210C1249.85 210 1240 171.87 1240 140" stroke="rgba(51, 121, 194, 0.58)" stroke-width="2"></path><path d="M1507.06 140C1507.06 115.28 1531.02 90.22 1540 90.22C1547.49 90.22 1540 115.11 1540 140C1540 163.83 1547.43 187.66 1540 187.66C1530.96 187.66 1507.06 164 1507.06 140" stroke="rgba(51, 121, 194, 0.58)" stroke-width="2"></path><path d="M1078.21 280C1084.28 254.47 1095.64 242.16 1120 242.16C1164.81 242.16 1173.91 253.13 1216.55 280C1243.91 297.25 1245.7 301.22 1260 330.4C1280.01 371.22 1285.17 377.79 1285.17 420C1285.17 438.15 1277.24 441.76 1260 451.11C1194.65 486.56 1175.13 519.01 1120 509.6C1084 503.46 1086.4 467.57 1077.74 420C1065.5 352.77 1063.15 343.39 1078.21 280" stroke="rgba(51, 121, 194, 0.58)" stroke-width="2"></path><path d="M0 414.17C67.64 367.34 80.56 321.35 140 323.08C180.56 324.26 200 382.48 200 420C200 440.79 170.97 438.86 140 439.69C70.97 441.55 67.42 434.86 0 425.38C-2.58 425.02 0 422.69 0 420C0 417.09 -2.36 415.8 0 414.17" stroke="rgba(51, 121, 194, 0.58)" stroke-width="2"></path><path d="M735 420C786.43 392.92 795.65 369.6 840 369.6C861.84 369.6 861.44 392.42 867.39 420C881.98 487.62 891.67 505.82 881.07 560C877.98 575.82 860.54 560 840 560C770 560 770 560 700 560C686.88 560 673.75 570.5 673.75 560C673.75 512.17 677.34 495.12 700 443.33C707.97 425.12 716.43 429.78 735 420" stroke="rgba(51, 121, 194, 0.58)" stroke-width="2"></path><path d="M1382.5 560C1382.5 556.13 1390.97 546.17 1400 546.17C1410.09 546.17 1420.74 556.23 1420.74 560C1420.74 563.14 1410.37 560 1400 560C1391.25 560 1382.5 563.04 1382.5 560" stroke="rgba(51, 121, 194, 0.58)" stroke-width="2"></path></g><defs><mask id="SvgjsMask1001"><rect width="1440" height="560" fill="#ffffff"></rect></mask></defs></svg>